<?xml version="1.0" encoding="utf-8"?>
<svg version="1.1" xmlns="http://www.w3.org/2000/svg" xmlns:xlink="http://www.w3.org/1999/xlink" x="0px" y="0px"
	 viewBox="0 0 837.4 388.2" enable-background="new 0 0 837.4 388.2" xml:space="preserve">
<g id="Brain">
	<path d="M190.9,146.3c0-64,39.4-84.8,81.1-122.4C293.3,4.7,320.9,0.1,348.5,0c7.5,1.3,14.3,4.2,20.4,8.8
		c5.9-3.6,12.1-6.2,18.7-7.8c13.7-0.4,25.2-1,38.5,2.3c30.9,7.7,39.8,25.6,61.7,43.9c21.3,17.8,43.6,22,54.9,52.5
		c13.5,36.3-5.8,58.6-4.9,92.2c0.4,17,12.8,28.9,10.5,48.1c-1.9,15.3-10,24.3-17.3,37.1c-20.4,36,1.7-9.5-12.1,25.4
		c-4.5,11.3-3.9,21.7-12.4,31.5c-11.6,13.3-26.8,11.1-39.4,19.3c-9.9,6.4-15.3,16.9-25.8,23.7c-30.9,20.3-43.1,2.2-71.4,0.4
		c-7.7-0.5-23.6,10.7-33.7,10.8c-12.8,0.2-28.2-4.2-39-11.4c-10.1-6.8-14.2-17.4-24.2-23.6c-11.1-7-24.4-5.2-35.4-15.1
		c-16.6-15-18.3-42.3-28.5-60.3c-10.8-19.1-20.8-32.4-17.5-56.1c1.7-12,10.2-21.2,10.3-32.9C202,176.6,193.3,158.8,190.9,146.3
		C190.9,139.2,192.1,152.9,190.9,146.3z M515.7,217.4c-10.6,8.5-73.4,43.9-77.8,9.5c-2.6-20.6,49.1-21.8,61.9-35.8
		c18.8-20.6,24.5-56.7,13.9-82.4c-9.2-22.4-21.8-21.9-39.2-33.6c-11.7-7.9-13.7-15.4-24.2-25.7c-10-9.8-26.1-18.7-40.5-18.8
		c-26.5-0.2-24,9.4-25.1,33.7c-1.8,41.3-0.1,83-0.1,124.3c0,44.1-3.2,89.9,0,133.9c2.3,31.5,12.7,48.2,47.2,24.3
		c-12.3-10.7-37.5-43.8-19-60.2c23.4-20.7,27.5,31.4,42,36.1c37.2,11.8,25.9-27.5,32.1-43C496.4,256.6,528.3,250.8,515.7,217.4
		C512.5,220,522.2,234.6,515.7,217.4z M226.2,170.2c11.8-5.5,100.6-21.5,81.2,16.9c-14.4,28.4-82.2-21.3-86.3,41.6
		c-1.6,25,16.6,23.4,26.3,40.3c7.5,13.1-2.3,28.8,5.5,41.5c9.5,15.5,34.2,12.8,47.1,22.3c12.4,9.2,16.9,32.2,40,25.3
		c30.7-9.2,14.6-111.5,14.6-140.4c0-29,0-58,0-87c0-21.7,8.2-66.5-1.6-86.4c-21.5-43.8-63.9,14.7-83.2,29.2
		c-14.4,10.9-29.9,9.8-40.5,27.8C216.5,122.7,221.7,147.2,226.2,170.2C229.5,168.7,224.5,161.2,226.2,170.2z"/>
	<path d="M480.2,164c-24.8,0.1-44.8-13.8-56.5-34.9c-12.9-23.2-5.9-56,19.8-31.2c7,6.7,5.7,20.4,14.7,27.9
		c9.1,7.6,19.3,3.3,27.2,8C503.6,144.4,512,162.2,480.2,164C453.6,164.1,483.1,163.8,480.2,164z"/>
	<path d="M324.9,296c0,11.5-8.3,18.3-18.4,15.6c-14.5-3.8-9.5-17.9-14.8-28.4c-7.2-14-37.9-27.2-40.3-39.6
		c-4.5-23.3,20-18.8,33.3-12.3C308.6,243.1,322.6,270.5,324.9,296C324.9,305.8,323.1,276,324.9,296z"/>
	<path d="M283.5,133.6c-22.2,1.3-18.1-18.2-8.6-27.7c6.2-6.2,20.3-3.4,28.4-9.5c7-5.2,5.4-18,14.4-21.4
		c21-7.9,23.5,13.1,16.9,28.7C326.1,123.8,303.2,131.5,283.5,133.6C276.8,134,286.9,133.2,283.5,133.6z"/>
</g>
<g id="Tags">
	<g>
		<path d="M540.6,352.2l86.5-288.9h28.5l-86.8,288.9H540.6z"/>
	</g>
	<g>
		<path d="M669.4,305.7v-29.8l115.5-66.5L669.4,143v-29.5l166.1,95.9L669.4,305.7z"/>
	</g>
	<g>
		<path d="M167,275.5v29.8L0.8,209.1L167,113.2v29.5L51.8,209.1L167,275.5z"/>
	</g>
</g>
</svg>
